<svg width="424" height="120" viewBox="0 0 424 120" fill="none" xmlns="http://www.w3.org/2000/svg">
<rect width="120" height="120" rx="36" fill="url(#paint0_radial_84_1747)"/>
<path d="M405.899 90.1871C398.664 90.1871 392.213 87.8336 387.855 83.5623L392.039 77.0247C395.003 80.0756 400.843 82.865 406.247 82.865C411.739 82.865 414.616 80.5986 414.616 77.2862C414.616 69.0053 389.163 74.9327 389.163 58.7195C389.163 51.8332 395.09 45.9929 405.724 45.9929C412.872 45.9929 418.277 48.5208 422.025 51.8332L418.189 58.2836C415.662 55.4942 411.042 53.2279 405.724 53.2279C400.93 53.2279 397.966 55.4942 397.966 58.458C397.966 65.8672 423.42 60.2885 423.42 77.0247C423.42 84.5212 417.231 90.1871 405.899 90.1871Z" fill="#003452"/>
<path d="M373.849 89.1411H364.696V47.0389H373.849V53.1407C377.074 49.131 382.13 45.9929 387.534 45.9929V55.0584C386.75 54.8841 385.878 54.7969 384.745 54.7969C380.822 54.7969 375.679 57.4119 373.849 60.4628V89.1411Z" fill="#003452"/>
<path d="M339.187 90.1871C326.461 90.1871 317.134 81.3831 317.134 68.0464C317.134 55.8429 326.025 45.9929 338.49 45.9929C351.129 45.9929 359.149 55.5814 359.149 68.8309V71.0973H326.722C327.42 77.3734 332.127 82.6907 340.059 82.6907C344.243 82.6907 349.037 81.0345 352.088 77.9836L356.272 83.9982C352.001 88.0079 345.812 90.1871 339.187 90.1871ZM350.345 64.5597C350.083 59.5911 346.684 53.4894 338.403 53.4894C330.645 53.4894 326.984 59.504 326.635 64.5597H350.345Z" fill="#003452"/>
<path d="M295.333 90.1871C290.016 90.1871 285.309 87.7464 281.822 83.3008V105.18H272.669V47.0389H281.822V52.792C284.96 48.608 289.841 45.9929 295.333 45.9929C306.229 45.9929 313.987 54.1867 313.987 68.0464C313.987 81.9062 306.229 90.1871 295.333 90.1871ZM292.631 82.0805C299.866 82.0805 304.573 76.2402 304.573 68.0464C304.573 59.8526 299.866 54.0995 292.631 54.0995C288.359 54.0995 283.914 56.5403 281.822 59.6783V76.3274C283.827 79.4654 288.359 82.0805 292.631 82.0805Z" fill="#003452"/>
<path d="M245.192 90.1871C231.768 90.1871 223.574 80.0756 223.574 68.0464C223.574 55.9301 231.768 45.9929 245.192 45.9929C258.616 45.9929 266.81 55.9301 266.81 68.0464C266.81 80.0756 258.616 90.1871 245.192 90.1871ZM245.192 82.0805C253.037 82.0805 257.308 75.5429 257.308 68.0464C257.308 60.6372 253.037 54.0996 245.192 54.0996C237.434 54.0996 233.076 60.6372 233.076 68.0464C233.076 75.5429 237.434 82.0805 245.192 82.0805Z" fill="#003452"/>
<path d="M208.522 89.1411H199.37V47.0389H208.522V53.1407C211.747 49.131 216.803 45.9929 222.208 45.9929V55.0584C221.423 54.8841 220.551 54.7969 219.418 54.7969C215.496 54.7969 210.353 57.4119 208.522 60.4628V89.1411Z" fill="#003452"/>
<path d="M160.199 89.1411H150V31H175.627C187.831 31 194.543 39.281 194.543 49.2181C194.543 59.0681 187.744 67.3491 175.627 67.3491H160.199V89.1411ZM174.233 58.3708C179.986 58.3708 184.083 54.7097 184.083 49.2181C184.083 43.6394 179.986 39.9783 174.233 39.9783H160.199V58.3708H174.233Z" fill="#003452"/>
<mask id="mask0_84_1747" style="mask-type:alpha" maskUnits="userSpaceOnUse" x="0" y="0" width="120" height="120">
<rect width="120" height="120" rx="36" fill="url(#paint1_radial_84_1747)"/>
</mask>
<g mask="url(#mask0_84_1747)">
<g filter="url(#filter0_ddddi_84_1747)">
<path d="M50.4542 35.2635C54.6489 39.4582 54.6489 46.2592 50.4542 50.4539C46.2595 54.6486 39.4586 54.6486 35.2638 50.4539C31.0691 46.2591 31.0691 39.4582 35.2638 35.2635C39.4585 31.0688 46.2595 31.0688 50.4542 35.2635Z" fill="white"/>
<path d="M50.4542 35.2635C54.6489 39.4582 54.6489 46.2592 50.4542 50.4539C46.2595 54.6486 39.4586 54.6486 35.2638 50.4539C31.0691 46.2591 31.0691 39.4582 35.2638 35.2635C39.4585 31.0688 46.2595 31.0688 50.4542 35.2635Z" fill="url(#paint2_radial_84_1747)" fill-opacity="0.2"/>
<path d="M91.8198 28.18C98.8493 35.2094 98.8493 46.6064 91.8199 53.6358C88.2992 57.1565 83.6828 58.9139 79.0684 58.9078C73.4372 58.9005 67.164 59.1999 63.1821 63.1818C59.2003 67.1636 58.9008 73.4369 58.9082 79.0681C58.9142 83.6826 57.1569 88.299 53.6362 91.8198C46.6067 98.8492 35.2098 98.8491 28.1803 91.8197C21.1509 84.7902 21.1508 73.3933 28.1802 66.3638C31.701 62.8431 36.3173 61.0858 40.9318 61.0918C46.563 61.0992 52.8362 60.7997 56.818 56.8179C60.7999 52.836 61.0993 46.5627 61.0919 40.9315C61.0859 36.317 62.8432 31.7006 66.364 28.1799C73.3934 21.1505 84.7904 21.1505 91.8198 28.18Z" fill="white"/>
<path d="M91.8198 28.18C98.8493 35.2094 98.8493 46.6064 91.8199 53.6358C88.2992 57.1565 83.6828 58.9139 79.0684 58.9078C73.4372 58.9005 67.164 59.1999 63.1821 63.1818C59.2003 67.1636 58.9008 73.4369 58.9082 79.0681C58.9142 83.6826 57.1569 88.299 53.6362 91.8198C46.6067 98.8492 35.2098 98.8491 28.1803 91.8197C21.1509 84.7902 21.1508 73.3933 28.1802 66.3638C31.701 62.8431 36.3173 61.0858 40.9318 61.0918C46.563 61.0992 52.8362 60.7997 56.818 56.8179C60.7999 52.836 61.0993 46.5627 61.0919 40.9315C61.0859 36.317 62.8432 31.7006 66.364 28.1799C73.3934 21.1505 84.7904 21.1505 91.8198 28.18Z" fill="url(#paint3_radial_84_1747)" fill-opacity="0.2"/>
<path d="M84.7365 84.7362C88.9312 80.5415 88.9312 73.7405 84.7365 69.5458C80.5417 65.3511 73.7408 65.351 69.5461 69.5457C65.3513 73.7404 65.3514 80.5414 69.5461 84.7361C73.7408 88.9309 80.5418 88.9309 84.7365 84.7362Z" fill="white"/>
<path d="M84.7365 84.7362C88.9312 80.5415 88.9312 73.7405 84.7365 69.5458C80.5417 65.3511 73.7408 65.351 69.5461 69.5457C65.3513 73.7404 65.3514 80.5414 69.5461 84.7361C73.7408 88.9309 80.5418 88.9309 84.7365 84.7362Z" fill="url(#paint4_radial_84_1747)" fill-opacity="0.2"/>
</g>
</g>
<defs>
<filter id="filter0_ddddi_84_1747" x="15.2743" y="21.5607" width="89.4516" height="102.474" filterUnits="userSpaceOnUse" color-interpolation-filters="sRGB">
<feFlood flood-opacity="0" result="BackgroundImageFix"/>
<feColorMatrix in="SourceAlpha" type="matrix" values="0 0 0 0 0 0 0 0 0 0 0 0 0 0 0 0 0 0 127 0" result="hardAlpha"/>
<feOffset dy="1.34716"/>
<feGaussianBlur stdDeviation="1.34716"/>
<feColorMatrix type="matrix" values="0 0 0 0 0.00784314 0 0 0 0 0.592157 0 0 0 0 0.984314 0 0 0 0.1 0"/>
<feBlend mode="normal" in2="BackgroundImageFix" result="effect1_dropShadow_84_1747"/>
<feColorMatrix in="SourceAlpha" type="matrix" values="0 0 0 0 0 0 0 0 0 0 0 0 0 0 0 0 0 0 127 0" result="hardAlpha"/>
<feOffset dy="4.93958"/>
<feGaussianBlur stdDeviation="2.46979"/>
<feColorMatrix type="matrix" values="0 0 0 0 0.00784314 0 0 0 0 0.592157 0 0 0 0 0.984314 0 0 0 0.09 0"/>
<feBlend mode="normal" in2="effect1_dropShadow_84_1747" result="effect2_dropShadow_84_1747"/>
<feColorMatrix in="SourceAlpha" type="matrix" values="0 0 0 0 0 0 0 0 0 0 0 0 0 0 0 0 0 0 127 0" result="hardAlpha"/>
<feOffset dy="10.7773"/>
<feGaussianBlur stdDeviation="3.14337"/>
<feColorMatrix type="matrix" values="0 0 0 0 0.00784314 0 0 0 0 0.592157 0 0 0 0 0.984314 0 0 0 0.05 0"/>
<feBlend mode="normal" in2="effect2_dropShadow_84_1747" result="effect3_dropShadow_84_1747"/>
<feColorMatrix in="SourceAlpha" type="matrix" values="0 0 0 0 0 0 0 0 0 0 0 0 0 0 0 0 0 0 127 0" result="hardAlpha"/>
<feOffset dy="19.3093"/>
<feGaussianBlur stdDeviation="3.81695"/>
<feColorMatrix type="matrix" values="0 0 0 0 0.00784314 0 0 0 0 0.592157 0 0 0 0 0.984314 0 0 0 0.01 0"/>
<feBlend mode="normal" in2="effect3_dropShadow_84_1747" result="effect4_dropShadow_84_1747"/>
<feBlend mode="normal" in="SourceGraphic" in2="effect4_dropShadow_84_1747" result="shape"/>
<feColorMatrix in="SourceAlpha" type="matrix" values="0 0 0 0 0 0 0 0 0 0 0 0 0 0 0 0 0 0 127 0" result="hardAlpha"/>
<feOffset dx="0.449053" dy="1.34716"/>
<feGaussianBlur stdDeviation="0.673579"/>
<feComposite in2="hardAlpha" operator="arithmetic" k2="-1" k3="1"/>
<feColorMatrix type="matrix" values="0 0 0 0 0.0156863 0 0 0 0 0.596078 0 0 0 0 0.988235 0 0 0 0.2 0"/>
<feBlend mode="normal" in2="shape" result="effect5_innerShadow_84_1747"/>
</filter>
<radialGradient id="paint0_radial_84_1747" cx="0" cy="0" r="1" gradientUnits="userSpaceOnUse" gradientTransform="translate(60) rotate(90) scale(120)">
<stop stop-color="#56CDFF"/>
<stop offset="1" stop-color="#0397FB"/>
</radialGradient>
<radialGradient id="paint1_radial_84_1747" cx="0" cy="0" r="1" gradientUnits="userSpaceOnUse" gradientTransform="translate(60) rotate(90) scale(120)">
<stop stop-color="#56CDFF"/>
<stop offset="1" stop-color="#0397FB"/>
</radialGradient>
<radialGradient id="paint2_radial_84_1747" cx="0" cy="0" r="1" gradientUnits="userSpaceOnUse" gradientTransform="translate(60.0003 60.0001) rotate(45) scale(28.0529 70.1316)">
<stop stop-color="white"/>
<stop offset="1" stop-color="#17B9FF"/>
</radialGradient>
<radialGradient id="paint3_radial_84_1747" cx="0" cy="0" r="1" gradientUnits="userSpaceOnUse" gradientTransform="translate(60.0003 60.0001) rotate(45) scale(28.0529 70.1316)">
<stop stop-color="white"/>
<stop offset="1" stop-color="#17B9FF"/>
</radialGradient>
<radialGradient id="paint4_radial_84_1747" cx="0" cy="0" r="1" gradientUnits="userSpaceOnUse" gradientTransform="translate(60.0003 60.0001) rotate(45) scale(28.0529 70.1316)">
<stop stop-color="white"/>
<stop offset="1" stop-color="#17B9FF"/>
</radialGradient>
</defs>
</svg>
